 http://img19.imageshack.us/img19/1339/posterwy.jpg


Aka: Zhui ying (HK Title)
Year: 2009
Directed: Marco Mak, Francis Ng
Genre: Action/Comedy
Runtime: 88 mins
Country: China/Hong Kong
Language: Cantonese
Subtitles: English
Cast: Kim Gang-Woo, Cha Su-Yeon, Jang Hyeok(b)
Imdb: http://www.imdb.com/title/tt1511528/

Synopsis / Plot / Review

Five kung-fu masters from different regions are fighting ruthlessly for a mysterious treasure map inside the Ming Palace; while they are all tangled in wild combat, the precious map unexpectedly disappears.

A young couple lives in a small village with their adopted daughter. On the surface, they run a small bed and breakfast that serves tourists passing through, in truth, they are two of the kung-fu masters who had fought vigorously for the treasure map years ago. One day, their wealthy landlord obliviously reveals to the whole village that he possess a treasure map. What was once deemed lost, resurfaces again, and a competitive search of the treasure thus begins, with a chain of adventurous events changing what was once a small ordinary town.


General Info:
Complete name : Tracing.Shadow.2009.DVDRip.H264.AAC-D34dLy.mp4
Format : MPEG-4
Format profile : Base Media
Codec ID : isom
File size : 350 MiB
Duration : 1h 28mn
Overall bit rate : 552 Kbps
Encoded date : UTC 2010-05-21 06:22:27
Tagged date : UTC 2010-05-21 06:22:27

Video Info:
ID : 1
Format : AVC
Format/Info : Advanced Video Codec
Format profile : High@L3.0
Format settings, CABAC : Yes
Format settings, ReFrames : 3 frames
Codec ID : avc1
Codec ID/Info : Advanced Video Coding
Duration : 1h 28mn
Bit rate mode : Variable
Bit rate : 486 Kbps
Maximum bit rate : 2 672 Kbps
Width : 640 pixels
Height : 336 pixels
Display aspect ratio : 1.905
Frame rate mode : Constant
Frame rate : 25.000 fps
Resolution : 8 bits
Colorimetry : 4:2:0
Scan type : Progressive
Bits/(Pixel*Frame) : 0.090
Stream size : 307 MiB (88%)
Title : Imported with GPAC 0.4.6-DEV (build 1)
Writing library : x264 core 80 r1376M 3feaec2
Encoding settings : cabac=1 / ref=3 / deblock=1:-2:-1 / analyse=0x3:0x113 / me=umh / subme=5 / psy=1 / psy_rd=0.0:0.0 / mixed_ref=1 / me_range=12 / chroma_me=1 / trellis=1 / 8x8dct=1 / cqm=0 / deadzone=21,11 / fast_pskip=1 / chroma_qp_offset=0 / threads=3 / sliced_threads=0 / nr=0 / decimate=1 / mbaff=0 / constrained_intra=0 / bframes=16 / b_pyramid=0 / b_adapt=1 / b_bias=0 / direct=3 / wpredb=1 / wpredp=2 / keyint=250 / keyint_min=25 / scenecut=40 / rc_lookahead=40 / rc=2pass / mbtree=1 / bitrate=486 / ratetol=1.0 / qcomp=0.60 / qpmin=10 / qpmax=51 / qpstep=4 / cplxblur=20.0 / qblur=0.5 / ip_ratio=1.40 / aq=2:1.00
Encoded date : UTC 2010-05-21 06:22:27
Tagged date : UTC 2010-05-21 06:23:06

Audio Info:
ID : 2
Format : AAC
Format/Info : Advanced Audio Codec
Format version : Version 4
Format profile : LC
Format settings, SBR : Yes
Format settings, PS : No
Codec ID : 40
Duration : 1h 28mn
Bit rate mode : Variable
Bit rate : 64.0 Kbps
Maximum bit rate : 75.3 Kbps
Channel(s) : 2 channels
Channel positions : Front: L R
Sampling rate : 48.0 KHz
Stream size : 40.6 MiB (12%)
Encoded date : UTC 2010-05-21 06:23:03
Tagged date : UTC 2010-05-21 06:23:06



Screenshots:
 
http://img69.imageshack.us/img69/9461/21166001.jpg 
http://img69.imageshack.us/img69/549/19357275.jpg 
http://img571.imageshack.us/img571/5735/aaadt.jpg 
http://img72.imageshack.us/img72/4984/aaaarp.jpg 
http://img19.imageshack.us/img19/2302/aaaaauj.jpg 
http://img513.imageshack.us/img513/1607/tracingshadow2009dvdrip.jpg